<?xml version="1.0" encoding="UTF-8"?><svg xmlns="http://www.w3.org/2000/svg" viewBox="0 0 136 59.51"><defs><style>.d{fill:#fff;}</style></defs><g id="a"/><g id="b"><g id="c"><path class="d" d="M81,10.71h.36l1.75,2.38h1.29l-1.96-2.51c.38-.11,.69-.31,.9-.58,.22-.27,.32-.58,.32-.93,0-.84-.63-1.22-1.17-1.39-.37-.12-.8-.18-1.3-.18-.57,0-.94,.03-1.25,.07v5.52h1.06v-2.38Zm0-2.54c.14-.02,.27-.02,.4-.02,.7,0,1.18,.28,1.18,.97,0,.45-.22,.98-1.13,.98-.15,0-.29-.01-.44-.04v-1.88Zm11.11,1.12l3.32,3.79h.59V7.52h-.79v3.78l-3.33-3.78h-.58v5.57h.79v-3.79Zm-1.88-1.78h-1.06v5.57h1.06V7.52Zm-4.53,5.57h1.06v-4.89c.26,0,.76,.02,1.68,.13l-.06-.81h-4.28l-.06,.81c.73-.09,1.21-.12,1.67-.13v4.89Zm-35.22,0h1.06v-4.89c.26,0,.75,.02,1.68,.13l-.06-.81h-4.28l-.06,.81c.73-.09,1.21-.12,1.67-.13v4.89Zm-9.5-1.4h2.1l.54,1.4h1.23l-2.34-5.57h-.61l-2.34,5.57h.88l.55-1.4Zm1.05-2.73l.8,2.08h-1.61l.8-2.08Zm33.54,2.73h2.1l.54,1.4h1.23l-2.34-5.57h-.61l-2.34,5.57h.88l.55-1.4Zm1.05-2.73l.8,2.08h-1.61l.8-2.08ZM135.76,1c-.36-.64-1.07-1-1.94-1h-54.8c-.92,0-2.32,0-3.78,1.45-.48,.48-.74,.95-.97,1.37-.45,.81-.78,1.39-2.28,1.39h-7.98c-1.5,0-1.82-.58-2.28-1.39-.23-.42-.5-.89-.97-1.37-1.45-1.45-2.85-1.45-3.78-1.45H2.18C1.31,0,.6,.37,.24,1-.12,1.64-.07,2.45,.36,3.17l.99,1.65c.53,.91,1.23,1.05,1.75,1.15,.47,.09,.75,.15,1.11,.78l.87,1.53c.67,1.25,1.49,1.4,2.08,1.52,.46,.09,.89,.12,1.47,1.18,.56,1.03,1.42,2.58,3.49,3.2,.2,.06,20.42,5.95,20.45,5.96,2.13,.69,2.69,1.48,3.35,2.46,.39,.58,1.44,2.13,4.04,2.83l19.44,5.25c2.08,.56,3.4-.46,4-.99l3.53-3.34c.48-.46,.79-.64,1.09-.64s.6,.18,1.09,.64l3.53,3.34c.61,.54,1.93,1.55,4,.99l19.44-5.25c2.6-.7,3.65-2.25,4.04-2.83,.66-.97,1.21-1.76,3.35-2.46,.03,0,20.24-5.9,20.45-5.96,2.07-.62,2.92-2.17,3.49-3.2,.55-1.01,.97-1.09,1.41-1.17,.58-.11,1.44-.23,2.13-1.53l.87-1.53c.36-.63,.64-.69,1.11-.78,.51-.1,1.21-.24,1.75-1.15l.99-1.65c.44-.73,.48-1.54,.12-2.17Zm-37.43,4.5V15.11H37.67V5.51h60.66ZM4.6,4.46c-1.69,0-1.88,0-2.38-.78l-.71-1.19c-.19-.31-.22-.62-.1-.83,.12-.21,.4-.32,.78-.32H56.98c.84,0,1.77,0,2.83,1.06,.65,.65,.8,1.37,1.41,2.06H4.6Zm1.49,2.91c-.25-.43-.72-1.27-.73-1.28-.08-.15-.17-.28-.26-.4h31.52v1.13l-27.2,1.6c-2.21,.15-2.58,.17-3.34-1.05Zm4.25,3.88c-.19-.29-.37-.6-.55-.92-.14-.26-.28-.48-.43-.67,.53-.03,1.06-.07,1.26-.08l26.01-1.52v1.4l-22.55,2.53c-2.45,.28-2.94,.34-3.74-.74Zm8.07,3.37l-4.63-1.35,22.85-2.57v1.49l-13.97,2.32h0c-1.84,.32-3,.42-4.25,.11Zm4.05,1.18l14.18-2.36v1.86l-5.22,1.33h0c-1.59,.41-2.56,.55-3.3,.55-1.11,0-1.74-.25-5.66-1.39Zm12.95,3.6c-.66,0-1.23-.18-4.94-1.26,.39-.08,.8-.18,1.25-.3l6.63-1.69h4.73c-4.88,2.45-6.45,3.25-7.67,3.25Zm3.67,3.78c-1.01,0-1.46-.44-2.06-1.33-.31-.46-.6-.86-.99-1.26,.24-.03,.49-.09,.76-.17,1.52-.44,3.75-1.62,9.05-4.27h4.32c-2.61,1.92-6.61,4.83-8.34,6.02-.8,.55-1.81,1.01-2.74,1.01Zm1.41,1.01c.89-.28,1.64-.74,2.03-1,2.09-1.43,7.43-5.34,9.74-7.04h3.63c-2.26,2.4-5.91,6.26-7.45,7.79-.65,.65-1.56,1.52-2.87,1.52-.5,0-.39,0-5.08-1.27Zm7.19,1.94c.81-.45,1.38-1.05,1.64-1.31,1.74-1.74,6.18-6.44,8.27-8.67h3.32c-1.87,3.13-4.35,7.27-5.45,8.99-.53,.84-1.41,2.13-3.09,2.13-.63,0-.65-.05-4.69-1.14Zm11.76,3.08c-.51,0-.39,0-5-1.25,1.18-.68,1.83-1.8,2.06-2.15,1.28-2.01,4.22-6.92,5.85-9.65h2.99c-.66,2.07-3.07,9.62-3.5,10.77-.38,1.01-.9,2.29-2.39,2.29Zm14.09-.5l-3.51-3.32c-.55-.52-1.17-1-2-1s-1.45,.48-2,1l-3.51,3.32c-.08,.07-.17,.14-.25,.2,.24-.35,.46-.8,.74-1.56,.44-1.18,2.93-8.99,3.64-11.2h2.76c.71,2.21,3.2,10.03,3.64,11.2,.29,.76,.5,1.21,.74,1.56-.08-.06-.17-.13-.25-.21Zm3.06,.5c-1.5,0-2.01-1.28-2.39-2.29-.43-1.15-2.84-8.69-3.5-10.77h2.99c1.63,2.73,4.57,7.64,5.85,9.65,.23,.36,.88,1.47,2.06,2.15-4.61,1.25-4.49,1.25-5,1.25Zm7.08-1.94c-1.68,0-2.56-1.29-3.09-2.13-1.1-1.72-3.59-5.86-5.45-8.99h3.32c2.09,2.23,6.53,6.93,8.27,8.67,.26,.26,.83,.86,1.64,1.31-4.04,1.09-4.06,1.14-4.69,1.14Zm6.79-1.81c-1.31,0-2.22-.87-2.87-1.52-1.53-1.53-5.18-5.39-7.45-7.79h3.63c2.31,1.7,7.64,5.61,9.74,7.04,.39,.26,1.14,.73,2.03,1-4.69,1.27-4.59,1.27-5.08,1.27Zm8.55-3.61c-.6,.89-1.04,1.33-2.06,1.33-.93,0-1.94-.47-2.74-1.01-1.74-1.19-5.73-4.1-8.34-6.02h4.32c5.3,2.65,7.53,3.83,9.05,4.27,.27,.08,.52,.13,.76,.17-.39,.4-.68,.8-.99,1.26Zm1.61-2.45c-1.21,0-2.79-.8-7.67-3.25h4.73l6.63,1.69c.45,.12,.87,.22,1.25,.3-3.71,1.08-4.28,1.26-4.94,1.26Zm7.29-2.21c-.74,0-1.71-.14-3.3-.55h0l-5.22-1.33v-1.86l14.18,2.36c-3.92,1.14-4.55,1.39-5.66,1.39Zm9.71-2.57c-1.25,.31-2.41,.21-4.25-.11h0l-13.97-2.32v-1.49l22.85,2.57-4.63,1.35Zm8.62-4.29c-.18,.32-.35,.63-.55,.92-.8,1.08-1.29,1.02-3.74,.74l-22.55-2.53v-1.4l26.01,1.52c.2,.01,.72,.05,1.26,.08-.14,.19-.28,.41-.43,.67Zm4.42-4.24s-.48,.85-.73,1.28c-.75,1.23-1.13,1.21-3.34,1.05l-27.2-1.6v-1.13h31.52c-.09,.12-.17,.25-.26,.4Zm3.86-3.61l-.71,1.19c-.5,.78-.7,.78-2.38,.78h-56.62c.61-.69,.76-1.42,1.41-2.06,1.07-1.07,1.99-1.06,2.83-1.06h54.8c.38,0,.66,.12,.78,.32,.12,.21,.08,.52-.1,.83ZM47.54,12.31c-.17,.13-.43,.2-.76,.2-.59,0-1.16-.23-1.69-.68l.09,1.01c.22,.12,.78,.38,1.61,.38,.63,0,1.13-.14,1.49-.43,.69-.54,.67-1.59,.24-2.13-.35-.44-.81-.63-1.79-1.13-.43-.22-.63-.44-.63-.76,0-.65,.81-.85,1.57-.56,.22,.08,.46,.22,.71,.4l-.09-.96c-.21-.09-.43-.15-.66-.19-.12-.02-1.31-.26-2.02,.36-.33,.28-.49,.66-.49,1.14,0,.69,.37,1.21,1.12,1.57,.84,.4,1.2,.55,1.4,.79,.24,.28,.24,.73-.09,.98Zm21.02-2.62l1.58,3.18h.52l1.56-3.21,.32,3.44h1.13l-.62-5.57h-.57l-1.91,3.89-1.98-3.89h-.57l-.62,5.57h.85l.32-3.4Zm-8.05-.39l3.32,3.79h.59V7.52h-.79v3.78l-3.33-3.78h-.58v5.57h.79v-3.79Zm-4.46,3.92c1.66,0,2.81-1.21,2.81-2.91s-1.16-2.91-2.81-2.91-2.81,1.19-2.81,2.91,1.15,2.91,2.81,2.91Zm0-5.14c.34,0,.63,.09,.88,.27,.81,.6,.78,1.83,.78,1.96,0,1.54-.79,2.23-1.65,2.23s-1.65-.7-1.65-2.23c0-1.16,.5-2.23,1.65-2.23Zm7.1,42.7c-.7-.93-1.77-1.4-3.19-1.4-.95,0-1.78,.21-2.48,.64-.71,.42-1.26,1.02-1.65,1.77-.39,.76-.59,1.63-.59,2.63s.21,1.91,.64,2.67c.42,.76,1.03,1.34,1.81,1.75,.78,.41,1.71,.62,2.78,.62,.57,0,1.12-.06,1.67-.18,.55-.12,1.02-.29,1.43-.51l.22-1.97c-.39,.34-.84,.62-1.33,.81-.49,.2-1.03,.29-1.61,.29-.91,0-1.65-.26-2.22-.77-.57-.51-.91-1.28-1.02-2.3h6.61c0-1.77-.35-3.13-1.05-4.06Zm-5.56,2.69c.07-.81,.3-1.46,.69-1.94,.39-.48,.9-.72,1.54-.72,.59,0,1.06,.22,1.4,.66,.34,.44,.54,1.11,.59,1.99h-4.23Zm-6.9-1.62l-1.88-.9c-.64-.32-1.09-.63-1.34-.93-.25-.3-.38-.65-.38-1.04,0-.52,.2-.92,.6-1.21,.4-.29,.97-.43,1.71-.43,1.11,0,2.25,.4,3.41,1.2l-.22-2.14c-.49-.21-1.02-.36-1.58-.46-.56-.1-1.12-.15-1.67-.15-1.4,0-2.5,.32-3.29,.95-.79,.63-1.19,1.52-1.19,2.65,0,1.58,.92,2.8,2.75,3.67l2.01,.96c.75,.36,1.26,.7,1.53,1.02,.27,.32,.41,.68,.41,1.07,0,.55-.23,1-.7,1.33-.47,.33-1.13,.5-1.97,.5-1.49,0-2.87-.52-4.13-1.57l.2,2.25c.53,.28,1.13,.5,1.81,.66,.68,.16,1.39,.24,2.14,.24,1.53,0,2.73-.33,3.61-.99,.88-.66,1.32-1.58,1.32-2.78,0-.87-.26-1.62-.78-2.22-.52-.61-1.3-1.17-2.36-1.67Zm40.18-4.43c.01-.55,.03-1.17,.06-1.85h-2.4c.02,.68,.04,1.29,.06,1.85,.01,.55,.02,1.21,.02,1.96v6.05c0,.75,0,1.4-.02,1.95-.01,.55-.03,1.17-.06,1.85h2.4c-.02-.69-.04-1.31-.06-1.85-.01-.55-.02-1.2-.02-1.95v-6.05c0-.75,0-1.4,.02-1.96Zm-17.66,2.6c-.75-.43-1.61-.65-2.58-.65s-1.84,.22-2.59,.65c-.76,.43-1.35,1.02-1.77,1.78-.42,.76-.64,1.63-.64,2.63s.21,1.85,.64,2.61c.42,.76,1.02,1.35,1.77,1.77s1.62,.64,2.59,.64,1.83-.22,2.58-.65c.75-.43,1.34-1.02,1.77-1.78,.43-.76,.65-1.63,.65-2.61s-.22-1.85-.65-2.61c-.43-.76-1.02-1.35-1.77-1.78Zm-.67,7.03c-.45,.63-1.09,.94-1.91,.94s-1.46-.31-1.91-.94c-.45-.63-.67-1.5-.67-2.62s.22-2.01,.67-2.64c.45-.63,1.09-.94,1.91-.94s1.46,.31,1.91,.94c.45,.63,.67,1.51,.67,2.64s-.22,1.99-.67,2.62Zm13.48-1.62v-2.03c0-.75,0-1.4,.02-1.96,.01-.55,.03-1.17,.06-1.85h-2.38c.02,.68,.04,1.29,.06,1.85,.01,.55,.02,1.21,.02,1.96v1.75c0,.81-.21,1.46-.63,1.96-.42,.49-.97,.74-1.66,.74-.57,0-.99-.19-1.28-.56-.29-.38-.43-.96-.43-1.74v-2.14c0-.73,0-1.38,.02-1.95,.01-.57,.03-1.19,.06-1.85h-2.4c.02,.66,.04,1.28,.06,1.85,.01,.57,.02,1.22,.02,1.95v2.4c0,1.12,.29,2.01,.87,2.67,.58,.66,1.38,.99,2.42,.99,1.33,0,2.33-.55,2.99-1.64h.11l.26,1.42h1.99c-.05-.69-.09-1.32-.11-1.88-.02-.57-.04-1.21-.04-1.92Z"/></g></g></svg>