<svg version="1.1" id="Layer_1" xmlns="http://www.w3.org/2000/svg" xmlns:xlink="http://www.w3.org/1999/xlink" x="0px" y="0px" viewBox="0 0 624.1 243.7" style="enable-background:new 0 0 624.1 243.7" xml:space="preserve">
<path d="M31.6,182.8h-4.5L0,243.7h10.4c1.7-5.8,3.6-11.4,5.9-17h22.1c2.7,6.6,4.8,12.6,6.4,17h12.9L31.6,182.8z M27.4,200.5
	c6.6,15.1,6.7,15.2,8.2,19.1H19.2C21,215.6,21,215.5,27.4,200.5L27.4,200.5z M428.1,243.7h12.9l-26.1-60.9h-4.5l-27.1,60.9h10.4
	c1.7-5.8,3.6-11.4,5.9-17h22.1C424.5,233.3,426.6,239.3,428.1,243.7z M410.7,200.5c6.6,15.3,6.7,15.3,8.2,19.1h-16.3
	C403.9,216.6,403.9,216.5,410.7,200.5L410.7,200.5z M366.9,243.7c-1.6-18.9-2.7-30.3-3.5-37.8c-10.2,18.4-14.7,27.4-18.8,36.9h-3.4
	c-10.3-21.1-11.4-23.2-13.8-27.6c-1-1.9-2.2-4.1-4.7-8.9c-0.4,3.8-2.3,20.4-3.5,37.4h-9.3c3-21.4,7.6-57.6,7.9-59.7h5.5
	c0.8,1.7,1.6,3.3,2.5,4.9c6.8,13.7,12.2,24.5,18.8,35.7l0.1,0.2l0.1-0.2c3-5.4,5.6-10.5,8.2-15.4c4-7.6,8.2-15.4,13.7-25.2h5
	c0.2,1.9,3.6,31.4,7.1,59.7L366.9,243.7z M547.1,243.7V184h11.1v59.7H547.1z M269.3,243.7c-2.5-3.2-20.3-22.8-37.3-41.6v41.6h-8.6
	V184h6.1l36.7,39.8V184h8.6v59.7H269.3z M120.7,243.7v-51.6c-6.3,0-12.6,0.4-18.8,1.2V184h47.9v9.3c-6-0.8-12-1.2-18-1.2v51.6H120.7
	z M92.6,196.5c-0.8-2.6-3.4-6.7-10.6-6.7c-5.4,0-10.1,3.7-10.1,8.2c0,5.8,6.5,8,11,9.6c8,3,13.2,4.9,16.1,10.7
	c1.2,2.3,1.8,4.8,1.8,7.4c-0.1,5.1-2.3,10-6.1,13.3c-4.4,4-10.7,6.1-18,6.1c-5.7,0.1-11.3-1.6-16-4.9v-12.8H65
	c1.7,3.8,5.1,10.1,13.6,10.1c2,0,11.6-0.9,11.4-9.6c-0.2-6.2-5.2-8-11.4-10.1c-3.2-1.1-12.8-3.8-16.2-12c-1.3-3-1.4-6.3-0.5-9.5
	c2-7.2,9.6-14,20.1-14c5.1,0.1,10.1,1.4,14.7,3.6v10.4L92.6,196.5z M182.2,245.7c-8,0.1-15.7-2.9-21.6-8.3
	c-5.1-4.8-9.4-12.5-9.4-23.6s4.4-18.8,9.4-23.6c5.8-5.4,13.6-8.4,21.6-8.3c7.5,0,22.1,3.1,28.4,18.3c1.8,4.3,2.6,8.9,2.6,13.6
	c0,11.1-4.4,18.8-9.4,23.6C197.9,242.9,190.2,245.8,182.2,245.7L182.2,245.7z M182.2,238.6c9.2,0,18.6-8.5,18.6-24.8
	s-9.4-24.8-18.6-24.8h-0.1c-9.2,0-18.6,8.5-18.6,24.8S172.9,238.6,182.2,238.6L182.2,238.6z M446.7,184c3.2-0.2,16.8-0.4,17-0.4
	c10.2,0,14.2,2,17.6,5.4c3.2,3.1,4.9,7.4,4.8,11.9c-0.1,4.2-1.9,8.2-4.8,11.2c-2.4,2.3-5.3,4-8.5,5.1l22.4,26.3h-13.7l-20.2-24.9
	h-3.7v24.9h-11V184z M462.2,190.2c-1.5,0-3,0.1-4.4,0.3h-0.1v21.1h0.1c1.5,0.3,3,0.4,4.5,0.4c9,0,13-5.7,13-11.1l0,0
	c0-2.7-1.1-5.4-3-7.4C470.1,191.3,466.7,190.2,462.2,190.2L462.2,190.2z M509.9,243.7v-51.6c-6.3,0-12.6,0.4-18.8,1.2V184H539v9.3
	c-6-0.8-12-1.2-18-1.2v51.6L509.9,243.7z M618.7,243.7c-2.5-3.2-20.3-22.8-37.3-41.6v41.6h-8.6V184h6.1l36.7,39.8V184h8.6v59.7
	L618.7,243.7z"></path>
<path d="M565.4,0H355.6c-3.8,0-9.1-0.1-14.7,5.6c-5.3,5.3-3.7,10.6-12.5,10.6h-30.6c-8.8,0-7.2-5.3-12.5-10.6
	C279.7-0.1,274.4,0,270.6,0H60.8c-7.2,0-10.3,6.4-6.9,12.1l3.8,6.3c1.4,2.5,3.9,4.1,6.6,4.4c1.9,0.1,3.5,1.3,4.3,3l3.4,5.9
	c2.6,4.8,5.7,5.3,7.9,5.8c1.8,0.3,3.4,0.5,5.7,4.5c2.4,4.4,5.7,10,13.3,12.2l78.4,22.9c8.1,2.6,10.2,5.6,12.6,9.1
	c1.3,1.8,5.1,8.3,15.7,11.2l74.5,20.1c7,1.9,11.9-0.8,15.3-3.8l13.5-12.8c3.5-3.3,4.9-3.3,8.4,0l13.5,12.8c3.4,3,8.3,5.7,15.3,3.8
	l74.5-20.1c10.6-2.8,14.5-9.4,15.7-11.2c2.4-3.4,4.5-6.4,12.6-9.1l78.4-22.9c7.6-2.3,10.9-7.8,13.3-12.2c2.2-4.1,3.8-4.2,5.7-4.5
	c2.3-0.4,5.4-1,7.9-5.8l3.3-5.9c1.4-2.4,2.5-2.7,4.3-3c2.8-0.3,5.3-1.9,6.6-4.4l3.8-6.3C575.7,6.4,572.6,0,565.4,0z M60.9,13
	l-2.3-3.8c-0.7-1.1-1.1-3.7,2.1-3.7h209.8c4.2,0,9-0.1,13.6,8c0.6,1.2,1.4,2.3,2.2,3.4H73.8C65.2,16.9,63.5,17,60.9,13z M197,57.6
	V21.2h232.2v36.4H197z M77.6,30.2c-2-2-3.2-6-5-8.5l120.3-0.5v5.3L91,32.4C83.2,32.9,79.9,32.5,77.6,30.2z M93.3,44
	c-1.1-1.5-2.1-3-2.9-4.7c-0.4-0.7-0.8-1.5-1.3-2.2c1.5-0.1,1.7-0.1,4.4-0.3l99.3-6.1v5.7l-78.5,8.4C103.8,46,96.6,47.6,93.3,44z
	 M120.2,54.7l-14.3-4.2c9.5-1.1,86.9-9.8,86.9-9.8V47l-50.3,8.1C136.7,56,129.7,57.2,120.2,54.7L120.2,54.7z M155.1,64.9l-15.9-4.6
	c1.5-0.2,2.4-0.4,4.1-0.6l49.6-8.3v6.8l-18.7,5.3C174,63.4,162.5,66.9,155.1,64.9L155.1,64.9z M178.8,71.8L178.8,71.8l-9.2-2.7
	c1.9-0.4,3.9-0.8,5.8-1.4l20.3-5.9h22.7l-21,9.8C190.7,74.1,184.7,73.3,178.8,71.8L178.8,71.8z M199.7,88.7
	c-2.1-1.5-3.9-3.4-5.3-5.7c-1.2-1.9-2.7-3.7-4.4-5.3c1.7-0.1,3.3-0.3,5-0.7c2.7-0.8,5.3-1.8,7.9-3l25.2-12.3h16.8l-33,23.4
	C206.8,88.4,202.8,89.7,199.7,88.7L199.7,88.7z M224.6,96.8l-16.2-4.4c2.1-0.9,4.1-2,6-3.3c1.7-1.1-0.3,0.3,38.1-27.4h14l-25.8,26.5
	C236.2,92.9,231.2,98,224.6,96.8L224.6,96.8z M250.1,103.7l-15.2-4.1c4.2-2.4,7.8-6.5,9.3-8L273,61.7h12.6l-22.9,35.8
	C258.9,103.2,254.6,104.5,250.1,103.7L250.1,103.7z M276.8,110.9l-16.2-4.4c2.6-1.7,4.8-4,6.4-6.6l24-38.1h10.9
	c0,0-14.1,41.3-15.1,43.4C284,111.2,280.8,111.7,276.8,110.9L276.8,110.9z M334.5,109.6l-13.4-12.7c-5.6-5.3-10.4-5.3-16,0
	l-13.4,12.7c-0.9,0.8-2,1.6-3.1,2.1c2.5-3.1,3.9-7.4,4.9-10.2l13.3-39.7h12.7l13.3,39.7c1,2.9,2.4,7.2,4.9,10.2
	C336.5,111.1,335.5,110.4,334.5,109.6L334.5,109.6z M349.4,110.9c-3.9,0.8-7.2,0.3-10-5.7c-1-2.1-15.1-43.4-15.1-43.4h10.9l24,38.1
	c1.6,2.7,3.7,4.9,6.3,6.6L349.4,110.9z M376.1,103.7c-4.5,0.8-8.8-0.4-12.5-6.1l-22.9-35.8h12.6L382,91.6c1.4,1.5,5.1,5.6,9.3,8
	L376.1,103.7z M401.6,96.8c-6.6,1.2-11.6-3.9-16.1-8.6l-25.9-26.5h14c0,0,36.4,26.3,38.1,27.4c1.9,1.3,3.9,2.4,6,3.3L401.6,96.8z
	 M431.8,83c-1.4,2.2-3.2,4.1-5.3,5.7c-3.1,1-7.1-0.2-12.2-3.5c-1.5-0.9-33-23.4-33-23.4h16.8c0,0,19.4,9.6,25.2,12.2
	c3.2,1.5,7.4,3.4,12.9,3.7C434.5,79.3,433,81.1,431.8,83z M447.4,71.8L447.4,71.8c-6,1.6-11.9,2.4-18.6-0.2c-2.4-0.9-21-9.8-21-9.8
	h22.7l20.3,5.9c1.9,0.6,3.8,1,5.8,1.4L447.4,71.8z M471.1,64.9c-7.4,2-19.1-1.4-19.1-1.4l-18.7-5.3v-6.8l49.6,8.3
	c1.7,0.3,2.6,0.4,4.1,0.6L471.1,64.9z M506,54.7c-9.5,2.5-16.5,1.4-22.3,0.4L433.4,47v-6.3l86.9,9.8L506,54.7z M535.8,39.3
	c-0.9,1.6-1.8,3.2-2.9,4.7c-3.3,3.6-10.5,2-21,0.9l-78.5-8.4v-5.7l99.3,6.1c2.7,0.2,3,0.2,4.5,0.3C536.7,37.9,536.2,38.6,535.8,39.3
	L535.8,39.3z M547.1,30.8c-3.8,2.5-8.2,1.7-21.1,1l-92.6-5.4v-5.3l120.3,0.5C551.2,25.2,550.5,28.7,547.1,30.8L547.1,30.8z
	 M567.6,9.2l-2.3,3.8c-2.6,4-4.2,3.9-12.9,3.9H339.8c0.8-1.1,1.6-2.2,2.2-3.4c4.6-8,9.4-8,13.6-8h209.8
	C568.7,5.5,568.2,8.1,567.6,9.2L567.6,9.2z M330.6,50.3c-0.5-6.6-0.9-10.4-1.2-13.1c-2.4,4.1-4.5,8.4-6.5,12.8h-1.4
	c-3.5-7.2-3.9-8-4.9-9.9l-1.4-2.7c-0.3,2.6-0.8,7.7-1.2,12.9h-3.6c1-7.6,2.7-20.4,2.9-21.5h2.2c0,0,5.2,10.4,7.5,14.3
	c2.6-4.8,4.3-8.3,7.7-14.3h2c0.4,3.1,1.5,12.9,2.6,21.5L330.6,50.3z M396.9,50.3V28.8h-4.3v21.5H396.9z M384.1,50.3V32
	c2.1,0,4.3,0.2,6.4,0.5v-3.7h-17.3v3.6c2.2-0.3,4.5-0.4,6.7-0.4v18.3H384.1z M249.9,50.3V32c2.1,0,4.3,0.2,6.4,0.5v-3.7h-17.3v3.6
	c2.2-0.3,4.5-0.4,6.7-0.4v18.3H249.9z M299.6,50.3V28.8h-3.4v13.9l-12.8-13.9H281v21.5h3.4V35.8l13,14.5H299.6z M224.8,44.2V49
	c1.7,1.2,3.8,1.8,5.9,1.8c4.6,0,8.8-2.6,8.8-7c0-2.4-1.4-4.6-3.7-5.5c-2.7-1.2-4.4-1.5-5.6-2.5c-2.1-1.8-0.4-4.7,2.5-4.7
	c1.6-0.1,3.1,0.9,3.6,2.4h1.6v-4c-1.7-0.8-3.5-1.3-5.4-1.3c-1.7,0-3.4,0.5-4.7,1.5c-3.3,2.4-4.2,7.3,0.5,10.1c2.9,1.8,6.9,1.6,7,4.7
	c0.1,2.4-2.2,3.2-3.9,3.2c-3.4,0-4.4-3-4.7-3.6H224.8z M224.6,50.3l-9.4-21.9h-1.8l-9.8,21.9h4c0.6-2,1.3-4,2.1-6h7.6
	c1,2.4,1.7,4.5,2.3,6H224.6z M211,41.4l2.6-6.2c2.1,4.7,2.2,5.1,2.7,6.2L211,41.4z M278.3,39.5c0-7.6-5.6-11.5-11.2-11.5
	S256,31.9,256,39.5S261.6,51,267.1,51S278.3,47.1,278.3,39.5L278.3,39.5z M267.1,48.2L267.1,48.2c-3.4,0-6.5-3.2-6.5-8.6
	c0-5.7,3.2-8.6,6.5-8.6l0,0c3.2,0,6.5,3,6.5,8.6S270.3,48.2,267.1,48.2z M357.9,50.3h4.2v-8.9h1.1l7.2,8.8h5.3l-8-9.5
	c1.1-0.4,2-1,2.9-1.8c2.3-2.3,2.3-6.1,0-8.4c-1.2-1.3-2.7-2-6.4-2c0,0-4.9,0-6.2,0.1L357.9,50.3z M362.1,31.4c0.5-0.1,1-0.1,1.5-0.1
	c4.4,0,4.5,3.2,4.5,3.7c0,2.2-2,4.3-6,3.6L362.1,31.4z M356.8,50.3l-9.4-21.9h-1.8l-9.8,21.9h4c0.6-2,1.3-4,2.1-6h7.6
	c1,2.4,1.7,4.5,2.3,6H356.8z M343.1,41.4l2.6-6.2c2.1,4.7,2.2,5.1,2.7,6.2L343.1,41.4z M419.8,50.3V28.8h-3.4v13.9l-12.8-13.9h-2.4
	v21.5h3.4V35.8l13,14.5H419.8z"></path>
</svg>